<svg version="1" xmlns="http://www.w3.org/2000/svg" width="24" height="24" viewBox="0 0 24 24"><g><g fill="none" stroke="#000" stroke-linecap="round" stroke-linejoin="round" stroke-miterlimit="10"><path d="M1 22.5l1-1 2 2 2-2 2 2 2-2 2 2 2-2 2 2 2-2 2 2 2-2 1 1"/><path d="M4.5 23l-4-8.5 9 3h14l-1.5 4"/><path d="M6.5 16.5v-7H11l3 3h7.5M20.5 12.5l1 5"/><path d="M9 9.5L11 4l5.5 2-2.5 6.5M10.176 6.26l5.422 2.086M14.5 1.5l1-1 2 2 2-2 2 2 2-2M21.117 15.5H14.5v-3M17.5 15.5v-3M6.5 12.5h4v2h-4"/></g></g></svg>