<svg version="1" xmlns="http://www.w3.org/2000/svg" width="24" height="24" viewBox="0 0 24 24"><g><path fill="none" stroke="#000" stroke-linecap="round" stroke-linejoin="round" stroke-miterlimit="10" d="M2.5 15.5l-2 3h7v-3zM7.5 23.5v-12l4-4 4 4v12M7.5 11.5h8M17.5 4.5h1M20.5 4.5h1M17.5 7.5h1M20.5 7.5h1M17.5 10.5h1M20.5 10.5h1M17.5 13.5h1M20.5 13.5h1M17.5 16.5h1M20.5 16.5h1M17.5 19.5h1M20.5 19.5h1"/><path fill="none" stroke="#000" stroke-linecap="round" stroke-linejoin="round" stroke-miterlimit="10" d="M9.5 13.5h4v3h-4zM9.5 18.5h4v3h-4zM3.5 23.5v-3h2v3"/><path fill="none" stroke="#000" stroke-linecap="round" stroke-linejoin="round" stroke-miterlimit="10" d="M15.5 11.5v-9h8v21h-22v-5M2.5 5.5l-2-2 2-1.5V.5h2l1 1H9l2 2-2 2z"/></g></svg>