<svg version="1" xmlns="http://www.w3.org/2000/svg" width="24" height="24" viewBox="0 0 24 24"><g><g fill="none" stroke="#000" stroke-linecap="round" stroke-linejoin="round" stroke-miterlimit="10"><path d="M17.5 17.5h-11V6l3-3.5h5l3 3.5zM4 17.5h16l-2 6H6z"/><path d="M5.625 22.375L8 20l2 2 2-2 2 2 2-2 2.375 2.375M13.5 15.5V10M13.5 8v-.5M10.5 9.5V13M10.5 15v.5M10.5 7v.5M13.5 6v-.5M9.5 2.5v-2M6.5 8.5h-2M6.5 11.5h-2M6.5 14.5h-2M6.5 6L5 5M8.115 4.115L6.5 2.5M17.5 8.5h2M17.5 11.5h2M17.5 14.5h2M17.5 6L19 5M15.885 4.115L17.5 2.5M14.5 2.5v-2"/></g></g></svg>