<svg version="1" xmlns="http://www.w3.org/2000/svg" width="24" height="24" viewBox="0 0 24 24"><g><g fill="none" stroke="#000" stroke-linecap="round" stroke-linejoin="round" stroke-miterlimit="10"><path d="M6.5 21.5l-3 2-3-2v-3l3-2 3 2zM10.777 13.5H23.5M15.5 20.5h-2l-3.5-9h13.5v9h-2M13.5 20.5h-7M10.5 5.5l4-5M14.5.5l9 5-2.5 1-2.5-1-4 2-4-2-2.5 1-2.5-1zM18.5 5.5l-4-5M14.5 7.5v4M3 12.5l-2-2h6.5l-3 2zM5.065 12.123L9.5 20.5M8.022 17.71l3.613-2.007M4.5 19l-2 2M2.5 19l2 2"/><path d="M21.5 21.5l-3 2-3-2v-3l3-2 3 2zM19.5 19l-2 2M17.5 19l2 2"/></g></g></svg>