<svg version="1" xmlns="http://www.w3.org/2000/svg" width="24" height="24" viewBox="0 0 24 24"><g><g fill="none" stroke="#000" stroke-linecap="round" stroke-linejoin="round" stroke-miterlimit="10"><path d="M8 15.5h6l6 4-6 4H8l-6-4zM12.5 4.5l3-4 4.5 19M2 19.5l6.5-9M22 .5v3M20.5 2h3M2 9v3M.5 10.5h3M21 7.5v2M20 8.5h2"/><path d="M9.5 21l2-1.5 2 1.5M11.5 19.5V10"/><g><path d="M8.5 8l3 2H14l-1-2.5-2.5-2z"/><path d="M10.5 5.5L10 3 8 2l-2.5.5L4 5l1 2.5 1.5 1 2-.5"/></g><path d="M5.675 7.95l3.46-5.383"/></g></g></svg>