<svg version="1" xmlns="http://www.w3.org/2000/svg" width="24" height="24" viewBox="0 0 24 24"><g><g fill="none" stroke="#000" stroke-linejoin="round" stroke-miterlimit="10"><path d="M10.5 6.5L9 7.5l-1.5-1V5L9 4l1.5 1z"/><path stroke-linecap="round" d="M12 .5v1M16 23.5H8L6.5 16 9 13.5h6l2.5 2.5zM12 10.5v3M7.6 21.5h8.8M2.5 16l.5 3 3.844-1.28M.5 12v2l2 2 2-2v-2M16 10.5L20.5 6 16 1.5H8L3.5 6 8 10.5z"/><path d="M13.5 6.5l1.5 1 1.5-1V5L15 4l-1.5 1z"/><path stroke-linecap="round" d="M21.5 16l-.5 3-3.844-1.28M23.5 12v2l-2 2-2-2v-2"/></g></g></svg>