<svg version="1" xmlns="http://www.w3.org/2000/svg" width="24" height="24" viewBox="0 0 24 24"><g><g fill="none" stroke="#000" stroke-linejoin="round" stroke-miterlimit="10"><path d="M19.5 19.5l-7.5 4-7.5-4v-9l7.5-4 7.5 4z"/><path stroke-linecap="round" d="M4.5 14.5h-2v2l2 2M19.5 14.5h2v2l-2 2"/><path d="M12 6.5l1 3.5 6.5 4.5M14.5 4.5l-2.5 2-2.5-2v-2l2.5-2 2.5 2z"/><path stroke-linecap="round" d="M10 18.5l2 1 2-1M8.5 15l1-1 1 1M14 15l1-1 1 1M13.27 7.178L18.5 5"/><path d="M12 6.5L11 10l-6.5 4.5"/><path stroke-linecap="round" d="M10.728 7.178L5.5 5"/></g></g></svg>