<svg version="1" xmlns="http://www.w3.org/2000/svg" width="24" height="24" viewBox="0 0 24 24"><g><g fill="none" stroke="#2c3e50" stroke-linecap="round" stroke-linejoin="round" stroke-miterlimit="10"><path d="M13 10.5h-2M3 10.5H.5l2-9h19l2 9H21"/><path d="M.5 23.5l1-3L1 17l1-5h1v4l2-6.5h1.5l-1 6.5L8 10h1.5l-2 7.5L10 16l1 .5-4 5-.5 2M23.5 23.5l-1-3L23 17l-1-5h-1v4l-2-6.5h-1.5l1 6.5-2.5-6h-1.5l2 7.5L14 16l-1 .5 4 5 .5 2M5.5 4.5H6M4.5 6.5H5M8 4.5h.5M7 6.5h.5M10.5 4.5h.5M9.5 6.5h.5M13 4.5h.5M12 6.5h.5M15.5 4.5h.5M14.5 6.5h.5M18 4.5h.5M17 6.5h.5M19.5 6.5h.5"/></g></g></svg>