<svg xmlns="http://www.w3.org/2000/svg" width="139.25" height="36.656" viewBox="0 0 139.25 36.656"><path fill="none" stroke="#010101" stroke-linejoin="round" stroke-miterlimit="10" d="M10.42 12.643l8.394 20.145H2.026z"/><path fill="none" stroke="#010101" stroke-linejoin="round" stroke-miterlimit="10" d="M15.325 24.417L24.69 2.57l12.59 30.218H18.814"/><path fill="none" stroke="#010101" stroke-linecap="round" stroke-linejoin="round" stroke-miterlimit="10" d="M.5 5.62l3.357-3.356L7.215 5.62l3.358-3.356L13.93 5.62l3.358-3.356 3.357 3.357M.5 11.42l3.357-3.357 3.358 3.358 3.358-3.357 3.357 3.358"/><path fill="none" stroke="#010101" stroke-linejoin="round" stroke-miterlimit="10" d="M19.652 14.322l2.52 2.517 2.517-2.518 2.518 2.517 2.42-2.42"/><path d="M48.563 2.68a.52.52 0 0 1 .737 0c.106.102.16.227.16.376v9.952c0 .15-.053.277-.16.385a.527.527 0 0 1-.384.16.545.545 0 0 1-.448-.225l-5.632-8.496v8.192c0 .14-.053.26-.16.368-.107.106-.23.16-.368.16s-.26-.054-.368-.16a.508.508 0 0 1-.16-.368V3.056c0-.15.053-.274.16-.376a.52.52 0 0 1 .368-.152c.18 0 .325.075.432.224l5.664 8.51V3.057a.5.5 0 0 1 .16-.376zM57.716 13.423h-5.312a.52.52 0 0 1-.384-.16.518.518 0 0 1-.16-.383V3.2c0-.15.053-.277.16-.384a.524.524 0 0 1 .384-.16h5.136c.14 0 .256.048.352.144s.144.213.144.352-.048.256-.144.352a.48.48 0 0 1-.352.144h-4.592v3.856h3.52a.48.48 0 0 1 .352.144c.096.096.143.213.143.352s-.048.256-.144.352a.48.48 0 0 1-.353.144h-3.52v3.936h4.768a.48.48 0 0 1 .352.145.48.48 0 0 1 .144.352.48.48 0 0 1-.495.494zM67.715 13.136L65.41 4.99l-2.303 8.146c-.075.277-.25.416-.528.416s-.455-.134-.53-.4l-2.83-9.888a.89.89 0 0 1-.033-.192c0-.15.053-.277.16-.384a.524.524 0 0 1 .384-.16c.278 0 .455.133.53.4l2.335 8.272 2.288-8.272c.064-.267.24-.4.528-.4s.465.133.53.4l2.287 8.272 2.336-8.272c.075-.267.25-.4.528-.4.15 0 .278.054.385.16s.16.234.16.384a.89.89 0 0 1-.032.192l-2.832 9.888c-.074.267-.25.4-.527.4s-.453-.138-.528-.416zM83.267 13.423h-6.72c-.14 0-.26-.047-.36-.144s-.152-.22-.152-.37a.54.54 0 0 1 .096-.303l5.953-8.928h-5.2a.505.505 0 0 1-.512-.512.505.505 0 0 1 .512-.513h6.144a.508.508 0 0 1 .512.512.54.54 0 0 1-.096.304L77.54 12.4h5.727c.14 0 .26.048.36.145.102.096.152.22.152.367a.504.504 0 0 1-.512.51zM91.107 13.423h-5.312a.52.52 0 0 1-.384-.16.518.518 0 0 1-.16-.383V3.2c0-.15.054-.277.16-.384a.524.524 0 0 1 .385-.16h5.136c.14 0 .257.048.353.144s.144.213.144.352-.048.256-.144.352a.478.478 0 0 1-.352.144h-4.59v3.856h3.52a.48.48 0 0 1 .35.144c.097.096.144.213.144.352s-.048.256-.144.352a.48.48 0 0 1-.352.144h-3.52v3.936h4.768a.48.48 0 0 1 .352.145.48.48 0 0 1 .144.352c0 .138-.048.255-.144.352a.48.48 0 0 1-.35.14zM99.395 10.24H94.93l-1.167 2.928c-.096.256-.272.385-.528.385a.527.527 0 0 1-.384-.16.526.526 0 0 1-.16-.385c0-.096.017-.176.05-.24l3.903-9.87c.107-.247.277-.37.512-.37.245 0 .42.124.528.37l3.904 9.87a.6.6 0 0 1 .048.24.544.544 0 0 1-.56.545c-.256 0-.432-.123-.528-.37l-1.152-2.943zm-.336-.992l-1.905-4.896-1.888 4.896h3.792zM104.435 12.4h4.384a.496.496 0 0 1 .51.512.495.495 0 0 1-.512.512h-4.927a.52.52 0 0 1-.383-.16.518.518 0 0 1-.16-.383V3.073c0-.15.053-.277.16-.384a.524.524 0 0 1 .384-.16c.15 0 .278.054.385.16.106.106.16.234.16.384V12.4zM116.93 10.24h-4.463l-1.168 2.928c-.097.256-.273.385-.53.385a.527.527 0 0 1-.383-.16.526.526 0 0 1-.16-.385c0-.096.016-.176.048-.24l3.904-9.87c.106-.247.276-.37.51-.37.246 0 .422.124.53.37l3.903 9.87a.6.6 0 0 1 .048.24.544.544 0 0 1-.56.545c-.255 0-.43-.123-.527-.37l-1.152-2.943zm-.336-.992l-1.904-4.896-1.888 4.896h3.792zM127.506 2.68a.52.52 0 0 1 .736 0c.106.102.16.227.16.376v9.952c0 .15-.053.277-.16.385a.527.527 0 0 1-.384.16.545.545 0 0 1-.448-.225l-5.632-8.496v8.192c0 .14-.053.26-.16.368-.107.106-.23.16-.368.16s-.26-.054-.368-.16a.508.508 0 0 1-.16-.368V3.056c0-.15.053-.274.16-.376a.52.52 0 0 1 .368-.152c.18 0 .325.075.432.224l5.664 8.51V3.057c0-.15.054-.275.16-.376zM131.347 2.656h2.256c1.6 0 2.824.424 3.672 1.272s1.272 2.222 1.272 4.12c0 1.9-.424 3.27-1.272 4.112-.848.843-2.072 1.264-3.672 1.264h-2.256a.52.52 0 0 1-.384-.16.518.518 0 0 1-.16-.383V3.2c0-.15.053-.277.16-.384a.52.52 0 0 1 .384-.16zm.544.992v8.783h1.713c1.258 0 2.213-.33 2.864-1 .65-.665.976-1.793.976-3.382 0-1.58-.325-2.707-.976-3.384-.65-.677-1.605-1.016-2.864-1.016h-1.712z"/><path fill="#3B97D3" d="M47.748 23.888c-.683-.843-1.547-1.264-2.592-1.264-.79 0-1.374.165-1.752.496-.38.33-.568.746-.568 1.248 0 .48.208.877.624 1.19s.92.566 1.512.753 1.184.396 1.776.625c.592.23 1.096.576 1.512 1.04s.624 1.053.624 1.768c0 1.004-.33 1.77-.992 2.305-.662.533-1.61.8-2.848.8-.864 0-1.63-.19-2.296-.567-.667-.378-1.144-.845-1.432-1.4a.663.663 0 0 1-.08-.288c0-.14.048-.258.144-.36a.48.48 0 0 1 .368-.15c.192 0 .34.085.448.255.618 1.014 1.568 1.52 2.848 1.52.885 0 1.565-.18 2.04-.536s.712-.882.712-1.575c0-.458-.15-.848-.448-1.168-.3-.32-.672-.557-1.12-.71-.448-.156-.934-.327-1.456-.514s-1.008-.376-1.456-.567a2.654 2.654 0 0 1-1.12-.912c-.3-.416-.448-.918-.448-1.504 0-.79.29-1.443.872-1.96.58-.52 1.427-.776 2.536-.776.747 0 1.418.146 2.016.44a3.522 3.522 0 0 1 1.408 1.207.543.543 0 0 1 .096.305c0 .14-.05.26-.152.36a.488.488 0 0 1-.36.152c-.17 0-.31-.07-.416-.21zM52.867 22.88h-2.864a.506.506 0 0 1-.512-.51.51.51 0 0 1 .144-.362c.096-.1.22-.15.368-.15h6.8c.14 0 .26.05.36.15.1.102.152.223.152.36s-.05.26-.152.36a.492.492 0 0 1-.36.152h-2.848v9.328a.525.525 0 0 1-.16.383.523.523 0 0 1-.384.16.52.52 0 0 1-.383-.16.522.522 0 0 1-.16-.382V22.88zM62.756 32.847c-2.507 0-3.76-1.168-3.76-3.503v-7.072c0-.15.053-.277.16-.384a.524.524 0 0 1 .384-.16c.15 0 .277.054.384.16.106.106.16.234.16.384v7.072c0 .353.037.663.112.937.075.272.205.53.392.776.187.246.46.436.824.568s.81.2 1.344.2c1.002 0 1.696-.228 2.08-.68.384-.454.576-1.054.576-1.8V22.27c0-.148.053-.276.16-.383a.524.524 0 0 1 .384-.16c.15 0 .277.054.384.16.106.106.16.234.16.384v7.073c0 2.336-1.248 3.504-3.744 3.504zM69.523 21.856h2.256c1.6 0 2.823.424 3.67 1.272.85.848 1.273 2.22 1.273 4.12 0 1.898-.424 3.27-1.272 4.112-.847.842-2.07 1.264-3.67 1.264h-2.257a.528.528 0 0 1-.384-.16.523.523 0 0 1-.16-.385V22.4c0-.148.052-.277.16-.384a.527.527 0 0 1 .383-.16zm.544.992v8.784h1.712c1.257 0 2.212-.334 2.863-1 .65-.666.976-1.795.976-3.385 0-1.578-.326-2.706-.977-3.383-.65-.678-1.605-1.017-2.864-1.017h-1.713zM81.635 32.59c-.106.108-.234.16-.384.16s-.276-.052-.383-.16a.522.522 0 0 1-.16-.382v-4.592L77.49 22.56a.538.538 0 0 1-.08-.29c0-.148.054-.276.16-.383s.236-.16.385-.16c.202 0 .357.086.464.256l2.83 4.544 2.833-4.544a.515.515 0 0 1 .464-.256c.15 0 .277.054.384.16.107.106.16.234.16.384a.538.538 0 0 1-.08.29l-3.215 5.056v4.592c0 .15-.053.278-.16.383z"/></svg>