<?xml version="1.0" encoding="utf-8"?>
<!-- Generator: Adobe Illustrator 15.0.0, SVG Export Plug-In . SVG Version: 6.00 Build 0)  -->
<!DOCTYPE svg PUBLIC "-//W3C//DTD SVG 1.1//EN" "http://www.w3.org/Graphics/SVG/1.1/DTD/svg11.dtd">
<svg version="1.1" id="Layer_1" xmlns="http://www.w3.org/2000/svg" xmlns:xlink="http://www.w3.org/1999/xlink" x="0px" y="0px"
	 width="139.25px" height="36.656px" viewBox="0 0 139.25 36.656" enable-background="new 0 0 139.25 36.656" xml:space="preserve">
<polygon fill="none" stroke="#010101" stroke-linejoin="round" stroke-miterlimit="10" points="10.421,12.643 18.814,32.788
	2.026,32.788 "/>
<polyline fill="none" stroke="#010101" stroke-linejoin="round" stroke-miterlimit="10" points="15.325,24.417 24.689,2.569
	37.28,32.788 18.814,32.788 "/>
<polyline fill="none" stroke="#010101" stroke-linecap="round" stroke-linejoin="round" stroke-miterlimit="10" points="0.5,5.621
	3.857,2.264 7.215,5.621 10.573,2.264 13.93,5.621 17.288,2.264 20.645,5.621 "/>
<polyline fill="none" stroke="#010101" stroke-linecap="round" stroke-linejoin="round" stroke-miterlimit="10" points="0.5,11.421
	3.857,8.063 7.215,11.421 10.573,8.063 13.93,11.421 "/>
<polyline fill="none" stroke="#010101" stroke-linejoin="round" stroke-miterlimit="10" points="19.652,14.322 22.171,16.839
	24.689,14.322 27.208,16.839 29.627,14.419 "/>
<g>
	<path d="M48.563,2.68c0.107-0.101,0.229-0.152,0.368-0.152S49.193,2.579,49.3,2.68c0.106,0.102,0.16,0.227,0.16,0.376v9.952
		c0,0.15-0.053,0.277-0.16,0.385c-0.107,0.106-0.235,0.16-0.384,0.16c-0.181,0-0.331-0.075-0.448-0.225l-5.632-8.496v8.192
		c0,0.139-0.053,0.261-0.16,0.368c-0.107,0.106-0.229,0.16-0.368,0.16s-0.261-0.054-0.368-0.16c-0.106-0.107-0.16-0.229-0.16-0.368
		V3.056c0-0.149,0.053-0.274,0.16-0.376c0.107-0.101,0.229-0.152,0.368-0.152c0.181,0,0.325,0.075,0.432,0.224l5.664,8.511V3.056
		C48.404,2.907,48.457,2.781,48.563,2.68z"/>
	<path d="M57.716,13.423h-5.312c-0.15,0-0.278-0.053-0.384-0.16c-0.107-0.105-0.16-0.234-0.16-0.383V3.2
		c0-0.149,0.053-0.277,0.16-0.384c0.106-0.106,0.234-0.16,0.384-0.16h5.136c0.139,0,0.256,0.048,0.352,0.144
		s0.144,0.213,0.144,0.352s-0.048,0.256-0.144,0.352C57.795,3.6,57.678,3.648,57.54,3.648h-4.592v3.856h3.52
		c0.138,0,0.256,0.048,0.352,0.144C56.916,7.744,56.963,7.861,56.963,8s-0.048,0.256-0.144,0.352
		c-0.096,0.096-0.214,0.144-0.352,0.144h-3.52v3.936h4.768c0.138,0,0.256,0.049,0.352,0.145c0.096,0.096,0.144,0.214,0.144,0.352
		c0,0.139-0.048,0.256-0.144,0.353C57.972,13.376,57.854,13.423,57.716,13.423z"/>
	<path d="M67.715,13.136l-2.304-8.145l-2.304,8.145c-0.075,0.277-0.251,0.416-0.528,0.416s-0.454-0.134-0.528-0.4l-2.832-9.888
		c-0.021-0.085-0.032-0.149-0.032-0.192c0-0.149,0.053-0.277,0.16-0.384c0.106-0.106,0.234-0.16,0.384-0.16
		c0.277,0,0.454,0.133,0.528,0.4l2.336,8.272l2.288-8.272c0.064-0.267,0.24-0.4,0.528-0.4s0.464,0.133,0.528,0.4l2.288,8.272
		l2.336-8.272c0.075-0.267,0.25-0.4,0.528-0.4c0.149,0,0.277,0.054,0.384,0.16s0.16,0.234,0.16,0.384
		c0,0.043-0.011,0.107-0.032,0.192l-2.832,9.888c-0.075,0.267-0.25,0.4-0.528,0.4S67.79,13.414,67.715,13.136z"/>
	<path d="M83.267,13.423h-6.72c-0.139,0-0.259-0.047-0.36-0.144s-0.152-0.218-0.152-0.368c0-0.106,0.032-0.208,0.096-0.304
		l5.952-8.928h-5.2c-0.149,0-0.272-0.05-0.368-0.152c-0.096-0.101-0.144-0.221-0.144-0.36s0.048-0.259,0.144-0.36
		c0.096-0.101,0.219-0.152,0.368-0.152h6.144c0.149,0,0.272,0.051,0.368,0.152c0.096,0.102,0.144,0.222,0.144,0.36
		c0,0.106-0.032,0.208-0.096,0.304L77.539,12.4h5.728c0.139,0,0.259,0.048,0.36,0.145c0.102,0.096,0.152,0.219,0.152,0.367
		c0,0.15-0.051,0.271-0.152,0.368C83.526,13.376,83.406,13.423,83.267,13.423z"/>
	<path d="M91.107,13.423h-5.312c-0.15,0-0.278-0.053-0.384-0.16c-0.107-0.105-0.16-0.234-0.16-0.383V3.2
		c0-0.149,0.053-0.277,0.16-0.384c0.106-0.106,0.234-0.16,0.384-0.16h5.136c0.139,0,0.256,0.048,0.352,0.144
		s0.144,0.213,0.144,0.352s-0.048,0.256-0.144,0.352c-0.096,0.096-0.213,0.144-0.352,0.144h-4.592v3.856h3.52
		c0.138,0,0.256,0.048,0.352,0.144C90.307,7.744,90.354,7.861,90.354,8s-0.048,0.256-0.144,0.352
		c-0.096,0.096-0.214,0.144-0.352,0.144h-3.52v3.936h4.768c0.138,0,0.256,0.049,0.352,0.145c0.096,0.096,0.144,0.214,0.144,0.352
		c0,0.139-0.048,0.256-0.144,0.353C91.363,13.376,91.245,13.423,91.107,13.423z"/>
	<path d="M99.395,10.24h-4.464l-1.168,2.928c-0.096,0.256-0.272,0.385-0.528,0.385c-0.149,0-0.277-0.054-0.384-0.16
		c-0.106-0.107-0.16-0.234-0.16-0.385c0-0.096,0.016-0.176,0.048-0.239l3.904-9.872c0.107-0.246,0.277-0.368,0.512-0.368
		c0.245,0,0.421,0.123,0.528,0.368l3.904,9.872c0.032,0.075,0.048,0.154,0.048,0.239c0,0.15-0.054,0.277-0.16,0.385
		c-0.106,0.106-0.24,0.16-0.4,0.16c-0.256,0-0.432-0.123-0.528-0.369L99.395,10.24z M99.059,9.248l-1.904-4.896l-1.888,4.896H99.059
		z"/>
	<path d="M104.435,12.4h4.384c0.149,0,0.272,0.048,0.368,0.145c0.096,0.096,0.144,0.219,0.144,0.367c0,0.15-0.048,0.271-0.144,0.368
		c-0.096,0.097-0.219,0.144-0.368,0.144h-4.928c-0.15,0-0.278-0.053-0.384-0.16c-0.107-0.105-0.16-0.234-0.16-0.383V3.072
		c0-0.149,0.053-0.277,0.16-0.384c0.106-0.106,0.234-0.16,0.384-0.16c0.149,0,0.277,0.054,0.384,0.16
		c0.106,0.106,0.16,0.234,0.16,0.384V12.4z"/>
	<path d="M116.931,10.24h-4.464l-1.168,2.928c-0.096,0.256-0.272,0.385-0.528,0.385c-0.149,0-0.277-0.054-0.384-0.16
		c-0.106-0.107-0.16-0.234-0.16-0.385c0-0.096,0.016-0.176,0.048-0.239l3.904-9.872c0.107-0.246,0.277-0.368,0.512-0.368
		c0.245,0,0.421,0.123,0.528,0.368l3.904,9.872c0.032,0.075,0.048,0.154,0.048,0.239c0,0.15-0.054,0.277-0.16,0.385
		c-0.106,0.106-0.24,0.16-0.4,0.16c-0.256,0-0.432-0.123-0.528-0.369L116.931,10.24z M116.594,9.248l-1.904-4.896l-1.888,4.896
		H116.594z"/>
	<path d="M127.506,2.68c0.107-0.101,0.229-0.152,0.368-0.152s0.261,0.051,0.368,0.152c0.106,0.102,0.16,0.227,0.16,0.376v9.952
		c0,0.15-0.053,0.277-0.16,0.385c-0.107,0.106-0.235,0.16-0.384,0.16c-0.181,0-0.331-0.075-0.448-0.225l-5.632-8.496v8.192
		c0,0.139-0.053,0.261-0.16,0.368c-0.107,0.106-0.229,0.16-0.368,0.16s-0.261-0.054-0.368-0.16c-0.106-0.107-0.16-0.229-0.16-0.368
		V3.056c0-0.149,0.053-0.274,0.16-0.376c0.107-0.101,0.229-0.152,0.368-0.152c0.181,0,0.325,0.075,0.432,0.224l5.664,8.511V3.056
		C127.347,2.907,127.4,2.781,127.506,2.68z"/>
	<path d="M131.347,2.656h2.256c1.6,0,2.824,0.424,3.672,1.272s1.272,2.222,1.272,4.12c0,1.899-0.424,3.27-1.272,4.112
		c-0.848,0.843-2.072,1.264-3.672,1.264h-2.256c-0.15,0-0.278-0.053-0.384-0.16c-0.107-0.105-0.16-0.234-0.16-0.383V3.2
		c0-0.149,0.053-0.277,0.16-0.384C131.069,2.709,131.197,2.656,131.347,2.656z M131.891,3.648v8.783h1.712
		c1.258,0,2.213-0.332,2.864-1c0.651-0.666,0.976-1.794,0.976-3.383c0-1.579-0.325-2.707-0.976-3.384
		c-0.65-0.677-1.605-1.016-2.864-1.016H131.891z"/>
	<path fill="#3B97D3" d="M47.748,23.888c-0.683-0.843-1.547-1.264-2.592-1.264c-0.79,0-1.374,0.165-1.752,0.496
		c-0.379,0.33-0.568,0.746-0.568,1.248c0,0.479,0.208,0.877,0.624,1.191s0.92,0.565,1.512,0.752s1.184,0.395,1.776,0.624
		c0.592,0.229,1.096,0.576,1.512,1.04s0.624,1.053,0.624,1.768c0,1.004-0.331,1.771-0.992,2.305
		c-0.662,0.533-1.611,0.799-2.848,0.799c-0.864,0-1.629-0.189-2.296-0.566c-0.667-0.379-1.144-0.846-1.432-1.4
		c-0.053-0.107-0.08-0.203-0.08-0.289c0-0.139,0.048-0.258,0.144-0.359c0.096-0.102,0.218-0.152,0.368-0.152
		c0.192,0,0.341,0.086,0.448,0.256c0.618,1.014,1.568,1.521,2.848,1.521c0.885,0,1.565-0.18,2.04-0.537s0.712-0.883,0.712-1.576
		c0-0.458-0.15-0.848-0.448-1.168c-0.299-0.32-0.672-0.557-1.12-0.711c-0.448-0.155-0.934-0.326-1.456-0.513
		s-1.008-0.376-1.456-0.567c-0.448-0.193-0.821-0.496-1.12-0.912c-0.299-0.416-0.448-0.918-0.448-1.504
		c0-0.79,0.291-1.443,0.872-1.961c0.581-0.518,1.427-0.775,2.536-0.775c0.747,0,1.418,0.146,2.016,0.439
		c0.597,0.294,1.066,0.696,1.408,1.208c0.064,0.097,0.096,0.198,0.096,0.304c0,0.139-0.051,0.26-0.152,0.36
		c-0.101,0.102-0.221,0.152-0.36,0.152C47.993,24.096,47.854,24.027,47.748,23.888z"/>
	<path fill="#3B97D3" d="M52.867,22.88h-2.864c-0.149,0-0.272-0.051-0.368-0.152c-0.096-0.102-0.144-0.221-0.144-0.359
		s0.048-0.26,0.144-0.361c0.096-0.101,0.219-0.151,0.368-0.151h6.8c0.139,0,0.259,0.051,0.36,0.151
		c0.101,0.102,0.152,0.223,0.152,0.361s-0.051,0.258-0.152,0.359c-0.102,0.102-0.222,0.152-0.36,0.152h-2.848v9.328
		c0,0.148-0.054,0.277-0.16,0.383c-0.107,0.107-0.235,0.16-0.384,0.16c-0.15,0-0.278-0.053-0.384-0.16
		c-0.106-0.105-0.16-0.234-0.16-0.383V22.88z"/>
	<path fill="#3B97D3" d="M62.756,32.847c-2.507,0-3.76-1.168-3.76-3.503v-7.072c0-0.149,0.053-0.277,0.16-0.384
		c0.106-0.106,0.234-0.16,0.384-0.16c0.149,0,0.277,0.054,0.384,0.16c0.106,0.106,0.16,0.234,0.16,0.384v7.072
		c0,0.353,0.037,0.663,0.112,0.937c0.075,0.271,0.205,0.529,0.392,0.775c0.187,0.246,0.461,0.436,0.824,0.568
		s0.811,0.199,1.344,0.199c1.002,0,1.696-0.227,2.08-0.68c0.384-0.453,0.576-1.053,0.576-1.8v-7.072c0-0.149,0.053-0.277,0.16-0.384
		c0.106-0.106,0.234-0.16,0.384-0.16c0.149,0,0.277,0.054,0.384,0.16c0.106,0.106,0.16,0.234,0.16,0.384v7.072
		C66.5,31.679,65.252,32.847,62.756,32.847z"/>
	<path fill="#3B97D3" d="M69.523,21.856h2.256c1.6,0,2.824,0.424,3.672,1.272c0.848,0.848,1.272,2.221,1.272,4.119
		c0,1.899-0.424,3.27-1.272,4.113c-0.848,0.842-2.072,1.264-3.672,1.264h-2.256c-0.15,0-0.278-0.055-0.384-0.16
		c-0.107-0.107-0.16-0.234-0.16-0.385V22.4c0-0.148,0.053-0.277,0.16-0.384C69.246,21.91,69.374,21.856,69.523,21.856z
		 M70.067,22.848v8.784h1.712c1.258,0,2.213-0.334,2.864-1c0.651-0.666,0.976-1.795,0.976-3.385c0-1.578-0.325-2.706-0.976-3.383
		c-0.65-0.678-1.605-1.017-2.864-1.017H70.067z"/>
	<path fill="#3B97D3" d="M81.635,32.591c-0.106,0.107-0.234,0.16-0.384,0.16s-0.277-0.053-0.384-0.16
		c-0.106-0.105-0.16-0.234-0.16-0.383v-4.592l-3.216-5.057c-0.053-0.086-0.08-0.182-0.08-0.288c0-0.149,0.053-0.277,0.16-0.384
		s0.235-0.16,0.384-0.16c0.202,0,0.357,0.086,0.464,0.256l2.832,4.544l2.832-4.544c0.106-0.17,0.261-0.256,0.464-0.256
		c0.149,0,0.277,0.054,0.384,0.16c0.106,0.106,0.16,0.234,0.16,0.384c0,0.106-0.027,0.202-0.08,0.288l-3.216,5.057v4.592
		C81.795,32.357,81.742,32.486,81.635,32.591z"/>
</g>
<g>
</g>
</svg>
